<svg version="1.1"
     id="Calque_1"
     xmlns="http://www.w3.org/2000/svg"
     xmlns:xlink="http://www.w3.org/1999/xlink"
     x="0px"
     y="0px"
     viewBox="195 15 40 35"
     style="enable-background:new 195 15 40 35;"
     xml:space="preserve">
    <path class="st0"
          fill="#F3702A"
          d="M231.2,30.1c-1.4-1.7-3.2-2.9-5.3-3.6v-0.1c0-6.1-5-11.1-11.1-11.1s-11.1,5-11.1,11.1v0.1  c-4.5,1.4-7.7,5.6-7.7,10.6c0,6.1,5,11.1,11.1,11.1c2.9,0,5.7-1.2,7.8-3.2c2,2,4.7,3.2,7.8,3.2c6.1,0,11.1-5,11.1-11.1  C233.7,34.5,232.8,32,231.2,30.1z M222.6,45.4c-4.6,0-8.3-3.7-8.3-8.3c0-0.8-0.6-1.4-1.4-1.4c-0.8,0-1.4,0.6-1.4,1.4  c0,2.1,0.6,4,1.6,5.7c-1.6,1.7-3.7,2.6-6,2.6c-4.6,0-8.3-3.7-8.3-8.3s3.7-8.3,8.3-8.3c1,0,2,0.2,2.9,0.5c0.3,0.1,0.8,0.3,0.9,0.4  c0.6,0.5,1.5,0.4,2-0.2s0.4-1.5-0.2-2c-0.6-0.5-1.6-0.9-1.8-1c-1.2-0.4-2.5-0.7-3.8-0.7h-0.5c0.2-4.4,3.8-7.9,8.3-7.9  c4.6,0,8.3,3.7,8.3,8.3c0,2.7-1.3,5.2-3.5,6.8c-0.6,0.4-0.8,1.3-0.3,1.9c0.3,0.4,0.7,0.6,1.1,0.6c0.3,0,0.6-0.1,0.8-0.3  c2.1-1.5,3.6-3.7,4.3-6.1c3.2,1.2,5.4,4.3,5.4,7.8C230.9,41.6,227.2,45.4,222.6,45.4L222.6,45.4z" />

</svg>